# xmcd
#
# Track frame offsets:
# 150
# 18407
# 33826
# 50504
# 67961
# 84639
# 99514
# 112721
# 131808
# 149158
# 164456
# 178893
# 194708
# 212564
#
# Disc length: 2990 seconds
#
#
# Revision: 1
# Processed by: cddbd v1.5.1PL2 Copyright (c) Steve Scherf et al.
# Submitted via: FreeRIP 2.941 
#
DISCID=cb0bac0e
DTITLE=Sérgio Reis - Warner 25 Anos
DYEAR=2002
DGENRE=Country
TTITLE0=Ventos Uivantes
TTITLE1=Vaca Estrela E Boi Fubá
TTITLE2=Tocando Em Frente
TTITLE3=Cabocla Tereza
TTITLE4=Mais Uma Vez
TTITLE5=Hoje Eu Não Posso Ir
TTITLE6=Marcando Estrada
TTITLE7=Viola Calada
TTITLE8=Segura Peão
TTITLE9=Um Violeiro Toca
TTITLE10=Estrada Da Saudade
TTITLE11=Quantanamera
TTITLE12=Vaso Quebrado
TTITLE13=Pinha No Pinheiro
EXTD=
EXTT0=
EXTT1=
EXTT2=
EXTT3=
EXTT4=
EXTT5=
EXTT6=
EXTT7=
EXTT8=
EXTT9=
EXTT10=
EXTT11=
EXTT12=
EXTT13=
PLAYORDER=
